<?xml version="1.0" encoding="UTF-8"?>
<svg width="32" height="32" viewBox="0 0 32 32" fill="none" xmlns="http://www.w3.org/2000/svg">
  <!-- Academic background -->
  <rect width="32" height="32" rx="6" fill="#1e3a8a"/>
  
  <!-- Graduation cap -->
  <path d="M16 8L24 12L16 16L8 12L16 8Z" fill="white" stroke="white" stroke-width="0.5"/>
  <path d="M20 14V18C20 19.1 18.2 20 16 20C13.8 20 12 19.1 12 18V14" fill="none" stroke="white" stroke-width="1"/>
  
  <!-- Tassel -->
  <path d="M24 12V14L25 15" fill="none" stroke="white" stroke-width="1" stroke-linecap="round"/>
  
  <!-- Academic excellence indicator -->
  <circle cx="26" cy="6" r="3" fill="#fbbf24"/>
  <path d="M25 6L25.5 7L27 7L26 7.5L26.5 9L25.5 8L25 9L24.5 8L24 9L24.5 7L23 7L24.5 6L25 6Z" fill="#1e3a8a" stroke="none"/>
</svg> 